<svg xmlns="http://www.w3.org/2000/svg" version="1.1" viewBox="-5.0 -10.0 110.0 135.0">
 <path d="m50 41.668c9.2031 0 16.668-7.4648 16.668-16.668s-7.4648-16.668-16.668-16.668-16.668 7.4648-16.668 16.668 7.4648 16.668 16.668 16.668zm8.332-16.668c0 4.6016-3.7305 8.332-8.332 8.332s-8.332-3.7305-8.332-8.332 3.7305-8.332 8.332-8.332 8.332 3.7305 8.332 8.332zm26.574 46.945c2.3008-11.34-6.3633-21.945-17.938-21.945h-33.938c-11.574 0-20.238 10.605-17.938 21.945 1.3711 6.7539 6.4219 12.164 13.062 14l15.188 4.1953c4.3555 1.2031 8.957 1.2031 13.312 0l15.188-4.1953c6.6406-1.8359 11.691-7.2461 13.062-14zm-61.645-1.6602c-1.2539-6.1758 3.4648-11.953 9.7695-11.953h33.938c6.3047 0 11.023 5.7773 9.7695 11.953-0.74609 3.6797-3.4961 6.625-7.1133 7.625l-15.188 4.1953c-2.9023 0.80469-5.9727 0.80469-8.875 0l-15.188-4.1953c-3.6172-1-6.3672-3.9453-7.1133-7.625z" fill-rule="evenodd"/>
<text x="0.0" y="117.5" font-size="5.0" font-weight="bold" font-family="Arbeit Regular, Helvetica, Arial-Unicode, Arial, Sans-serif" fill="#000000">Created by Helmi Salam Said</text><text x="0.0" y="122.5" font-size="5.0" font-weight="bold" font-family="Arbeit Regular, Helvetica, Arial-Unicode, Arial, Sans-serif" fill="#000000">from Noun Project</text></svg>